<svg xmlns="http://www.w3.org/2000/svg" xmlns:xlink="http://www.w3.org/1999/xlink" id="svg" version="1.1" width="400" height="244.35797665369648" viewBox="0, 0, 400,244.35797665369648"><g id="svgg"><path id="path0" d="M39.699 59.549 C 39.245 60.242,39.373 72.291,39.863 74.939 C 39.987 75.611,40.204 77.152,40.345 78.362 C 40.664 81.108,41.701 87.015,42.320 89.617 C 42.577 90.697,42.787 91.797,42.787 92.062 C 42.786 92.326,43.017 93.368,43.299 94.377 C 43.582 95.385,44.087 97.200,44.422 98.411 C 46.804 107.017,50.688 117.135,54.463 124.572 C 55.078 125.782,55.744 127.103,55.945 127.506 C 63.822 143.368,79.900 162.799,94.651 174.285 L 96.270 175.546 96.915 174.901 C 97.270 174.546,98.001 173.474,98.540 172.519 C 99.078 171.564,99.765 170.374,100.065 169.875 C 100.365 169.377,101.610 167.231,102.832 165.108 C 104.053 162.984,106.300 159.101,107.826 156.479 C 109.351 153.857,111.395 150.336,112.369 148.655 C 114.710 144.611,118.063 138.814,118.826 137.491 C 119.163 136.908,120.346 134.863,121.456 132.946 C 122.566 131.030,124.557 127.592,125.880 125.306 C 127.204 123.020,128.964 119.982,129.791 118.556 C 131.726 115.220,131.724 114.994,129.742 112.958 C 123.284 106.330,115.886 95.449,113.483 89.044 C 113.347 88.682,112.888 87.561,112.462 86.553 C 111.517 84.311,109.050 76.825,109.048 76.191 C 109.047 75.938,108.831 74.893,108.568 73.868 C 107.818 70.949,107.059 65.931,106.873 62.654 C 106.766 60.789,106.587 59.545,106.395 59.354 C 106.152 59.111,99.182 59.033,73.100 58.983 L 40.112 58.919 39.699 59.549 M269.035 59.166 C 268.241 59.488,268.187 59.684,267.964 63.032 C 267.851 64.740,267.590 67.072,267.386 68.215 C 267.181 69.358,266.900 71.009,266.761 71.883 C 266.244 75.153,264.273 81.929,262.708 85.819 C 262.357 86.693,261.939 87.736,261.780 88.136 C 259.130 94.811,253.206 104.061,247.622 110.243 C 245.944 112.102,245.906 112.418,247.121 114.473 C 247.621 115.321,248.199 116.318,248.404 116.688 C 248.610 117.058,249.713 118.969,250.856 120.935 C 253.409 125.326,253.721 125.864,255.897 129.629 C 257.675 132.706,261.783 139.785,262.227 140.537 C 262.756 141.433,266.410 147.739,266.899 148.600 C 267.184 149.101,268.219 150.886,269.199 152.567 C 270.178 154.248,271.684 156.834,272.545 158.313 C 273.406 159.792,274.207 161.167,274.325 161.369 C 275.256 162.955,278.150 167.991,279.103 169.682 C 281.340 173.651,281.159 173.642,285.343 169.994 C 293.315 163.042,301.842 153.675,308.103 144.988 C 309.749 142.704,310.573 141.472,313.575 136.797 C 314.007 136.125,314.775 134.859,315.282 133.985 C 315.789 133.111,316.427 132.011,316.700 131.540 C 318.238 128.887,321.232 123.018,322.499 120.171 C 322.799 119.499,323.360 118.280,323.747 117.462 C 324.133 116.645,324.450 115.891,324.450 115.788 C 324.450 115.684,324.609 115.253,324.803 114.829 C 324.997 114.405,325.551 113.013,326.035 111.736 C 326.518 110.458,327.021 109.193,327.152 108.924 C 327.282 108.655,327.544 107.885,327.734 107.213 C 327.923 106.540,328.368 105.165,328.722 104.156 C 329.076 103.148,329.578 101.553,329.836 100.611 C 330.095 99.670,330.638 97.689,331.044 96.210 C 331.450 94.731,331.897 92.861,332.036 92.054 C 332.176 91.247,332.448 90.092,332.640 89.487 C 332.833 88.881,333.101 87.506,333.236 86.430 C 333.371 85.355,333.597 84.089,333.738 83.619 C 333.880 83.148,334.160 81.293,334.362 79.497 C 334.563 77.700,334.843 75.775,334.982 75.218 C 335.336 73.807,335.556 59.887,335.232 59.413 C 334.945 58.993,270.057 58.751,269.035 59.166 M188.959 153.718 C 188.750 153.959,187.589 155.862,186.379 157.946 C 182.505 164.616,177.825 172.715,177.408 173.472 C 177.186 173.875,176.804 174.535,176.560 174.939 C 175.769 176.248,172.596 181.689,170.287 185.697 C 169.047 187.848,166.792 191.754,165.277 194.377 C 159.044 205.160,159.260 204.104,163.152 204.775 C 178.911 207.490,199.454 207.198,215.892 204.027 C 219.253 203.378,219.242 203.476,216.474 198.655 C 215.315 196.638,214.119 194.548,213.815 194.010 C 213.511 193.472,212.267 191.326,211.049 189.242 C 209.831 187.158,207.880 183.802,206.712 181.785 C 205.544 179.768,203.804 176.763,202.844 175.107 C 201.885 173.451,200.870 171.691,200.588 171.195 C 200.306 170.699,199.053 168.533,197.803 166.381 C 196.554 164.230,195.342 162.139,195.110 161.736 C 194.878 161.333,193.886 159.627,192.904 157.946 C 191.923 156.265,190.936 154.560,190.712 154.156 C 190.229 153.290,189.488 153.105,188.959 153.718 " stroke="none" fill="#fbb45d" fill-rule="evenodd"/><path id="path1" d="M121.271 15.159 C 120.628 15.802,120.604 15.704,121.998 18.093 C 124.118 21.727,127.243 27.117,127.777 28.061 C 128.060 28.563,129.036 30.238,129.946 31.785 C 130.856 33.331,132.616 36.357,133.856 38.509 C 135.097 40.660,137.339 44.539,138.838 47.127 C 145.653 58.890,147.128 61.437,148.754 64.240 C 155.826 76.438,155.699 76.051,153.653 79.133 C 153.191 79.830,152.807 80.492,152.801 80.604 C 152.796 80.715,152.309 81.577,151.720 82.518 C 151.131 83.460,150.299 84.890,149.873 85.697 C 149.446 86.504,148.902 87.384,148.665 87.653 C 148.428 87.922,147.932 88.802,147.561 89.609 C 147.191 90.416,146.697 91.296,146.463 91.565 C 146.228 91.834,145.777 92.549,145.459 93.154 C 145.141 93.759,144.189 95.438,143.345 96.886 C 142.500 98.333,141.809 99.602,141.809 99.707 C 141.809 99.811,141.484 100.277,141.086 100.743 C 140.688 101.208,140.357 101.699,140.352 101.834 C 140.336 102.197,138.867 104.974,138.540 105.257 C 138.385 105.391,138.121 105.776,137.953 106.112 C 137.175 107.671,135.507 110.576,135.307 110.720 C 135.185 110.808,134.897 111.265,134.666 111.736 C 134.435 112.207,133.913 113.142,133.506 113.814 C 133.098 114.487,132.644 115.339,132.496 115.709 C 132.347 116.079,132.139 116.381,132.032 116.381 C 131.925 116.381,131.765 116.671,131.676 117.025 C 131.588 117.379,131.099 118.286,130.591 119.042 C 130.083 119.797,129.346 121.060,128.954 121.849 C 128.561 122.637,127.992 123.550,127.689 123.878 C 127.387 124.207,127.138 124.552,127.136 124.646 C 127.131 124.941,125.672 127.712,125.314 128.108 C 125.126 128.315,124.854 128.760,124.710 129.096 C 124.307 130.029,122.999 132.308,122.394 133.130 C 122.097 133.533,121.490 134.578,121.045 135.452 C 120.600 136.326,120.084 137.215,119.899 137.426 C 119.714 137.638,119.105 138.683,118.547 139.749 C 117.988 140.815,117.217 142.147,116.834 142.709 C 116.451 143.271,116.137 143.826,116.137 143.943 C 116.137 144.060,115.635 144.918,115.023 145.852 C 114.410 146.785,113.696 148.027,113.437 148.613 C 113.178 149.199,112.469 150.426,111.862 151.339 C 111.255 152.252,110.758 153.105,110.758 153.235 C 110.758 153.364,110.295 154.174,109.730 155.035 C 109.164 155.897,108.281 157.427,107.766 158.435 C 107.252 159.444,106.697 160.379,106.533 160.513 C 106.369 160.648,105.975 161.290,105.657 161.940 C 105.340 162.590,104.660 163.800,104.147 164.629 C 103.634 165.458,102.883 166.797,102.477 167.604 C 102.072 168.411,101.527 169.299,101.267 169.579 C 101.006 169.858,100.712 170.353,100.612 170.679 C 100.513 171.005,100.293 171.436,100.125 171.638 C 99.956 171.840,99.626 172.417,99.392 172.922 C 99.158 173.426,98.877 173.839,98.769 173.839 C 98.660 173.839,98.444 174.224,98.289 174.694 C 98.133 175.165,97.905 175.550,97.781 175.550 C 97.657 175.550,97.550 175.688,97.545 175.856 C 97.539 176.024,97.047 176.932,96.451 177.873 C 95.855 178.814,95.081 180.134,94.731 180.807 C 94.380 181.479,93.827 182.380,93.502 182.808 C 93.176 183.236,92.910 183.652,92.910 183.732 C 92.910 183.875,91.333 186.691,90.441 188.142 C 90.193 188.545,89.836 189.205,89.648 189.609 C 89.460 190.012,88.916 190.917,88.439 191.619 C 87.962 192.322,87.301 193.477,86.970 194.187 C 86.639 194.896,85.859 196.242,85.238 197.177 C 84.616 198.112,84.108 198.954,84.108 199.049 C 84.108 199.144,83.447 200.333,82.641 201.692 C 81.086 204.310,80.942 204.749,81.560 204.986 C 82.334 205.283,157.210 205.153,157.769 204.854 C 158.451 204.489,159.101 203.687,159.281 202.991 C 159.360 202.686,159.835 201.817,160.336 201.060 C 160.837 200.303,161.647 198.928,162.137 198.005 C 162.626 197.081,163.152 196.175,163.305 195.990 C 163.458 195.806,164.038 194.790,164.593 193.732 C 165.148 192.675,165.854 191.477,166.161 191.071 C 166.468 190.665,167.167 189.439,167.715 188.346 C 168.262 187.253,168.873 186.296,169.073 186.219 C 169.274 186.142,169.438 185.862,169.438 185.597 C 169.438 185.331,169.545 185.048,169.675 184.968 C 169.806 184.887,170.133 184.358,170.403 183.792 C 171.068 182.396,171.763 181.222,172.229 180.707 C 172.442 180.472,172.616 180.145,172.616 179.981 C 172.616 179.619,174.305 176.928,174.604 176.813 C 174.721 176.769,174.817 176.604,174.817 176.447 C 174.818 176.040,176.217 173.440,177.145 172.119 C 177.578 171.503,178.017 170.730,178.121 170.402 C 178.225 170.073,178.790 169.077,179.375 168.188 C 179.961 167.298,180.440 166.466,180.440 166.338 C 180.440 166.210,180.908 165.398,181.480 164.532 C 182.052 163.667,182.787 162.408,183.113 161.736 C 183.440 161.064,184.129 159.893,184.644 159.134 C 185.160 158.375,185.701 157.412,185.847 156.994 C 185.992 156.577,186.199 156.235,186.305 156.235 C 186.412 156.235,186.564 155.979,186.642 155.666 C 186.721 155.352,187.062 154.798,187.400 154.433 C 187.739 154.068,188.085 153.492,188.170 153.154 C 188.788 150.690,190.724 151.664,192.336 155.251 C 192.546 155.719,193.064 156.599,193.486 157.207 C 194.329 158.420,195.599 160.812,195.599 161.185 C 195.599 161.315,195.856 161.624,196.171 161.871 C 196.486 162.118,197.052 163.014,197.430 163.862 C 197.808 164.710,198.184 165.458,198.266 165.526 C 198.452 165.678,199.948 168.215,200.718 169.682 C 201.035 170.287,201.439 170.950,201.614 171.156 C 201.790 171.361,202.302 172.242,202.754 173.112 C 203.205 173.982,203.982 175.324,204.480 176.095 C 204.979 176.865,205.503 177.745,205.644 178.051 C 206.046 178.918,206.754 180.157,207.053 180.517 C 207.203 180.697,207.691 181.551,208.139 182.415 C 208.586 183.279,209.361 184.615,209.859 185.386 C 210.358 186.156,210.861 187.036,210.977 187.342 C 211.093 187.647,211.621 188.557,212.150 189.364 C 212.679 190.171,213.419 191.436,213.796 192.176 C 214.172 192.916,214.619 193.686,214.789 193.888 C 214.959 194.089,215.476 194.969,215.937 195.844 C 216.399 196.718,217.094 197.928,217.482 198.533 C 218.285 199.786,219.008 201.047,219.933 202.812 C 220.286 203.484,220.805 204.282,221.088 204.584 L 221.601 205.134 259.670 205.134 C 301.557 205.134,298.915 205.234,297.819 203.696 C 297.536 203.298,296.972 202.331,296.566 201.548 C 296.160 200.764,295.618 199.792,295.361 199.389 C 294.505 198.041,293.154 195.585,293.154 195.376 C 293.154 195.263,292.991 195.034,292.791 194.869 C 292.402 194.546,291.070 192.195,290.808 191.369 C 290.721 191.094,290.429 190.640,290.161 190.361 C 289.892 190.082,289.379 189.248,289.021 188.509 C 288.663 187.769,287.981 186.559,287.507 185.819 C 287.032 185.079,286.320 183.869,285.926 183.130 C 285.531 182.390,284.949 181.400,284.633 180.929 C 284.317 180.458,283.960 179.853,283.839 179.584 C 283.718 179.315,283.509 178.903,283.375 178.667 C 283.240 178.432,283.020 178.047,282.885 177.812 C 282.751 177.576,282.139 176.559,281.525 175.550 C 280.911 174.542,280.283 173.496,280.129 173.227 C 279.975 172.958,279.635 172.418,279.373 172.025 C 279.112 171.633,278.551 170.643,278.127 169.825 C 277.703 169.007,276.947 167.707,276.449 166.937 C 275.950 166.167,275.434 165.252,275.301 164.903 C 275.169 164.555,274.800 163.920,274.483 163.492 C 274.165 163.064,273.482 161.889,272.966 160.880 C 272.450 159.872,271.788 158.716,271.495 158.313 C 271.202 157.910,270.591 156.901,270.139 156.073 C 268.923 153.847,267.581 151.518,265.976 148.844 C 265.190 147.536,264.548 146.375,264.548 146.264 C 264.548 146.153,264.233 145.628,263.849 145.097 C 263.464 144.566,262.683 143.252,262.114 142.176 C 261.545 141.100,260.830 139.890,260.526 139.487 C 260.221 139.083,259.888 138.478,259.785 138.142 C 259.682 137.806,259.478 137.381,259.332 137.199 C 259.185 137.016,258.951 136.671,258.812 136.431 C 258.672 136.191,258.146 135.319,257.643 134.492 C 257.140 133.666,256.660 132.718,256.577 132.387 C 256.494 132.056,256.341 131.785,256.237 131.785 C 256.046 131.785,254.280 128.960,254.277 128.650 C 254.276 128.559,253.777 127.714,253.169 126.773 C 252.560 125.831,251.999 124.814,251.921 124.511 C 251.844 124.208,251.690 123.961,251.579 123.961 C 251.468 123.961,251.300 123.716,251.205 123.416 C 251.110 123.117,250.690 122.359,250.272 121.732 C 249.853 121.104,249.071 119.785,248.533 118.799 C 247.995 117.814,247.225 116.437,246.822 115.740 C 246.418 115.042,245.510 113.472,244.804 112.250 C 244.098 111.028,243.521 109.939,243.521 109.830 C 243.521 109.721,243.204 109.198,242.817 108.667 C 242.191 107.808,241.776 107.101,240.314 104.403 C 240.096 104.002,239.797 103.528,239.650 103.350 C 239.502 103.172,239.017 102.318,238.572 101.452 C 238.127 100.586,237.351 99.248,236.848 98.478 C 236.345 97.707,235.825 96.792,235.693 96.444 C 235.560 96.095,235.189 95.460,234.868 95.032 C 234.546 94.604,233.990 93.704,233.632 93.032 C 232.856 91.575,232.547 91.035,232.022 90.220 C 231.805 89.884,231.312 89.004,230.927 88.264 C 230.541 87.524,229.861 86.350,229.415 85.654 C 228.970 84.958,228.325 83.858,227.983 83.209 C 227.641 82.560,227.032 81.479,226.631 80.807 C 226.229 80.134,225.768 79.309,225.606 78.973 C 225.444 78.637,225.177 78.221,225.012 78.048 C 224.599 77.615,224.365 76.200,224.547 75.231 C 224.740 74.202,225.249 73.266,230.562 64.181 C 230.798 63.778,231.788 62.072,232.763 60.391 C 233.738 58.710,234.728 57.005,234.964 56.601 C 235.200 56.198,236.380 54.163,237.586 52.078 C 238.793 49.994,240.963 46.253,242.409 43.765 C 243.855 41.278,245.879 37.779,246.907 35.992 C 247.936 34.204,248.955 32.443,249.171 32.080 C 250.340 30.116,253.417 24.825,255.385 21.394 C 256.618 19.242,257.828 17.143,258.073 16.728 C 258.602 15.834,258.438 15.241,257.570 14.911 C 256.124 14.361,121.825 14.606,121.271 15.159 M257.617 15.661 C 257.863 15.908,257.108 17.531,255.746 19.682 C 255.490 20.086,254.698 21.438,253.985 22.688 C 253.273 23.938,252.228 25.754,251.663 26.722 C 251.099 27.691,250.548 28.649,250.441 28.851 C 250.333 29.053,249.924 29.768,249.532 30.440 C 249.140 31.112,248.115 32.873,247.254 34.352 C 246.393 35.831,245.589 37.207,245.466 37.408 C 245.343 37.610,244.839 38.490,244.344 39.364 C 243.850 40.238,242.902 41.889,242.236 43.032 C 241.570 44.175,240.933 45.275,240.820 45.477 C 240.707 45.678,240.058 46.760,239.378 47.879 C 238.698 48.999,238.075 50.182,237.993 50.508 C 237.911 50.834,237.760 51.100,237.657 51.100 C 237.554 51.100,236.768 52.333,235.911 53.839 C 235.053 55.346,233.995 57.189,233.558 57.935 C 233.121 58.681,232.695 59.434,232.610 59.609 C 232.526 59.784,231.920 60.819,231.265 61.910 C 230.610 63.000,230.073 64.031,230.073 64.200 C 230.073 64.369,229.985 64.544,229.877 64.588 C 229.673 64.673,227.873 67.563,227.873 67.807 C 227.873 67.884,227.558 68.419,227.172 68.998 C 226.452 70.078,224.207 74.386,223.120 76.773 C 222.476 78.188,222.112 78.839,219.437 83.374 C 218.524 84.921,217.546 86.592,217.263 87.089 C 216.520 88.393,214.469 91.940,205.628 107.213 C 204.382 109.364,203.144 111.510,202.876 111.980 C 202.608 112.451,201.644 114.101,200.733 115.648 C 199.823 117.194,198.860 118.845,198.594 119.315 C 198.327 119.786,197.147 121.822,195.973 123.839 C 194.799 125.856,193.066 128.862,192.123 130.520 C 189.508 135.114,189.972 135.380,184.722 126.284 C 183.557 124.267,181.610 120.911,180.394 118.826 C 178.456 115.505,175.770 110.870,174.181 108.106 C 172.922 105.915,168.124 97.643,166.502 94.866 C 165.520 93.185,164.511 91.424,164.259 90.954 C 164.006 90.483,163.598 89.768,163.352 89.364 C 160.663 84.960,155.742 76.231,155.588 75.592 C 155.376 74.712,154.018 72.154,151.608 68.093 C 150.969 67.017,150.127 65.587,149.737 64.914 C 149.347 64.242,148.917 63.515,148.781 63.299 C 148.644 63.082,148.161 62.202,147.707 61.343 C 147.253 60.483,146.665 59.473,146.400 59.098 C 146.135 58.723,145.587 57.788,145.182 57.020 C 144.777 56.252,144.091 55.073,143.656 54.401 C 143.222 53.729,142.401 52.353,141.832 51.345 C 141.262 50.336,140.612 49.184,140.386 48.784 C 140.160 48.384,139.522 47.284,138.968 46.339 C 137.116 43.179,135.336 40.074,134.708 38.906 C 134.365 38.270,133.732 37.227,133.302 36.588 C 132.871 35.950,132.518 35.370,132.518 35.299 C 132.518 35.229,132.054 34.382,131.486 33.417 C 130.139 31.127,129.684 30.328,129.305 29.584 C 129.134 29.248,128.612 28.368,128.144 27.628 C 127.677 26.889,126.916 25.568,126.453 24.694 C 125.990 23.820,125.475 22.940,125.308 22.738 C 125.142 22.537,124.326 21.161,123.495 19.682 C 122.664 18.203,121.862 16.815,121.711 16.598 C 121.561 16.381,121.507 16.023,121.592 15.803 C 121.780 15.313,257.128 15.172,257.617 15.661 " stroke="none" fill="#a8b3fb" fill-rule="evenodd"/><path id="path2" d="M121.592 15.803 C 121.507 16.023,121.561 16.381,121.711 16.598 C 121.862 16.815,122.664 18.203,123.495 19.682 C 124.326 21.161,125.142 22.537,125.308 22.738 C 125.475 22.940,125.990 23.820,126.453 24.694 C 126.916 25.568,127.677 26.889,128.144 27.628 C 128.612 28.368,129.134 29.248,129.305 29.584 C 129.684 30.328,130.139 31.127,131.486 33.417 C 132.054 34.382,132.518 35.229,132.518 35.299 C 132.518 35.370,132.871 35.950,133.302 36.588 C 133.732 37.227,134.365 38.270,134.708 38.906 C 135.336 40.074,137.116 43.179,138.968 46.339 C 139.522 47.284,140.160 48.384,140.386 48.784 C 140.612 49.184,141.262 50.336,141.832 51.345 C 142.401 52.353,143.222 53.729,143.656 54.401 C 144.091 55.073,144.777 56.252,145.182 57.020 C 145.587 57.788,146.135 58.723,146.400 59.098 C 146.665 59.473,147.253 60.483,147.707 61.343 C 148.161 62.202,148.644 63.082,148.781 63.299 C 148.917 63.515,149.347 64.242,149.737 64.914 C 150.127 65.587,150.969 67.017,151.608 68.093 C 154.018 72.154,155.376 74.712,155.588 75.592 C 155.742 76.231,160.663 84.960,163.352 89.364 C 163.598 89.768,164.006 90.483,164.259 90.954 C 164.511 91.424,165.520 93.185,166.502 94.866 C 168.124 97.643,172.922 105.915,174.181 108.106 C 175.770 110.870,178.456 115.505,180.394 118.826 C 181.610 120.911,183.557 124.267,184.722 126.284 C 189.972 135.380,189.508 135.114,192.123 130.520 C 193.066 128.862,194.799 125.856,195.973 123.839 C 197.147 121.822,198.327 119.786,198.594 119.315 C 198.860 118.845,199.823 117.194,200.733 115.648 C 201.644 114.101,202.608 112.451,202.876 111.980 C 203.144 111.510,204.382 109.364,205.628 107.213 C 214.469 91.940,216.520 88.393,217.263 87.089 C 217.546 86.592,218.524 84.921,219.437 83.374 C 222.112 78.839,222.476 78.188,223.120 76.773 C 224.207 74.386,226.452 70.078,227.172 68.998 C 227.558 68.419,227.873 67.884,227.873 67.807 C 227.873 67.563,229.673 64.673,229.877 64.588 C 229.985 64.544,230.073 64.369,230.073 64.200 C 230.073 64.031,230.610 63.000,231.265 61.910 C 231.920 60.819,232.526 59.784,232.610 59.609 C 232.695 59.434,233.121 58.681,233.558 57.935 C 233.995 57.189,235.053 55.346,235.911 53.839 C 236.768 52.333,237.554 51.100,237.657 51.100 C 237.760 51.100,237.911 50.834,237.993 50.508 C 238.075 50.182,238.698 48.999,239.378 47.879 C 240.058 46.760,240.707 45.678,240.820 45.477 C 240.933 45.275,241.570 44.175,242.236 43.032 C 242.902 41.889,243.850 40.238,244.344 39.364 C 244.839 38.490,245.343 37.610,245.466 37.408 C 245.589 37.207,246.393 35.831,247.254 34.352 C 248.115 32.873,249.140 31.112,249.532 30.440 C 249.924 29.768,250.333 29.053,250.441 28.851 C 250.548 28.649,251.099 27.691,251.663 26.722 C 252.228 25.754,253.273 23.938,253.985 22.688 C 254.698 21.438,255.490 20.086,255.746 19.682 C 257.108 17.531,257.863 15.908,257.617 15.661 C 257.128 15.172,121.780 15.313,121.592 15.803 " stroke="none" fill="#6d66fc" fill-rule="evenodd"/><path id="path3" d="M0.000 122.249 L 0.000 244.499 200.000 244.499 L 400.000 244.499 400.000 122.249 L 400.000 0.000 200.000 0.000 L 0.000 0.000 0.000 122.249 M258.680 14.670 C 259.373 15.363,259.319 15.597,257.908 18.013 C 257.214 19.200,256.219 20.938,255.696 21.876 C 255.173 22.813,254.585 23.757,254.390 23.973 C 254.194 24.189,254.034 24.451,254.034 24.555 C 254.034 24.726,251.812 28.610,249.548 32.396 C 249.066 33.203,248.380 34.413,248.025 35.086 C 247.669 35.758,247.115 36.658,246.794 37.086 C 246.473 37.514,246.210 37.933,246.210 38.016 C 246.210 38.337,243.423 43.032,243.233 43.032 C 243.122 43.032,243.032 43.174,243.032 43.348 C 243.032 43.607,239.025 50.768,238.147 52.078 C 238.012 52.280,237.611 52.994,237.255 53.664 C 236.899 54.335,236.327 55.325,235.984 55.865 C 235.640 56.404,235.038 57.451,234.646 58.191 C 234.253 58.930,233.577 60.086,233.143 60.758 C 232.468 61.803,231.368 63.692,229.826 66.453 C 228.580 68.682,225.998 73.091,225.590 73.686 C 224.602 75.122,224.876 76.151,227.314 80.161 C 227.611 80.651,227.997 81.326,228.170 81.663 C 228.344 81.999,228.660 82.549,228.873 82.885 C 229.356 83.649,231.755 87.770,232.573 89.242 C 233.157 90.294,237.593 97.948,241.075 103.912 C 241.977 105.458,243.333 107.783,244.087 109.078 C 245.833 112.077,245.943 112.115,247.586 110.299 C 253.122 104.181,259.140 94.785,261.780 88.136 C 261.939 87.736,262.357 86.693,262.708 85.819 C 264.273 81.929,266.244 75.153,266.761 71.883 C 266.900 71.009,267.181 69.358,267.386 68.215 C 267.590 67.072,267.852 64.719,267.967 62.986 C 268.125 60.621,268.275 59.737,268.571 59.441 C 269.153 58.859,334.834 58.832,335.232 59.413 C 335.556 59.887,335.336 73.807,334.982 75.218 C 334.843 75.775,334.563 77.700,334.362 79.497 C 334.160 81.293,333.880 83.148,333.738 83.619 C 333.597 84.089,333.371 85.355,333.236 86.430 C 333.101 87.506,332.833 88.881,332.640 89.487 C 332.448 90.092,332.176 91.247,332.036 92.054 C 331.897 92.861,331.450 94.731,331.044 96.210 C 330.638 97.689,330.095 99.670,329.836 100.611 C 329.578 101.553,329.076 103.148,328.722 104.156 C 328.368 105.165,327.923 106.540,327.734 107.213 C 327.544 107.885,327.282 108.655,327.152 108.924 C 327.021 109.193,326.518 110.458,326.035 111.736 C 325.551 113.013,324.997 114.405,324.803 114.829 C 324.609 115.253,324.450 115.684,324.450 115.788 C 324.450 115.891,324.133 116.645,323.747 117.462 C 323.360 118.280,322.799 119.499,322.499 120.171 C 321.232 123.018,318.238 128.887,316.700 131.540 C 316.427 132.011,315.789 133.111,315.282 133.985 C 314.775 134.859,314.007 136.125,313.575 136.797 C 310.573 141.472,309.749 142.704,308.103 144.988 C 301.196 154.570,288.163 168.486,282.175 172.671 L 281.587 173.082 282.020 174.255 C 282.258 174.900,282.702 175.813,283.007 176.284 C 283.508 177.058,289.342 187.107,290.318 188.875 C 290.541 189.279,290.987 190.049,291.310 190.587 C 295.444 197.471,299.511 204.767,299.511 205.296 C 299.511 206.395,300.917 206.357,260.123 206.357 L 221.322 206.357 220.624 205.560 C 220.241 205.122,219.702 204.454,219.428 204.076 L 218.929 203.388 215.883 204.000 C 199.336 207.324,171.740 207.454,160.702 204.260 C 160.269 204.135,159.929 204.335,159.060 205.229 L 157.964 206.357 119.386 206.354 C 98.167 206.352,80.559 206.284,80.257 206.203 C 79.181 205.915,79.457 205.156,82.512 200.000 C 83.428 198.454,84.389 196.803,84.647 196.333 C 84.905 195.862,85.411 194.969,85.773 194.349 C 87.354 191.635,89.633 187.702,90.999 185.330 C 91.811 183.918,93.241 181.470,94.175 179.890 C 96.492 175.973,96.520 175.690,94.726 174.336 C 80.737 163.774,63.798 143.320,55.945 127.506 C 55.744 127.103,55.078 125.782,54.463 124.572 C 50.688 117.135,46.804 107.017,44.422 98.411 C 44.087 97.200,43.582 95.385,43.299 94.377 C 43.017 93.368,42.786 92.326,42.787 92.062 C 42.787 91.797,42.577 90.697,42.320 89.617 C 41.701 87.015,40.664 81.108,40.345 78.362 C 40.204 77.152,39.987 75.611,39.863 74.939 C 39.373 72.291,39.245 60.242,39.699 59.549 L 40.112 58.919 73.100 58.983 C 99.182 59.033,106.152 59.111,106.395 59.354 C 106.587 59.545,106.766 60.789,106.873 62.654 C 107.059 65.931,107.818 70.949,108.568 73.868 C 108.831 74.893,109.047 75.938,109.048 76.191 C 109.050 76.825,111.517 84.311,112.462 86.553 C 112.888 87.561,113.347 88.682,113.483 89.044 C 115.914 95.522,123.392 106.487,129.875 113.081 L 131.558 114.792 132.164 114.059 C 132.497 113.655,133.275 112.445,133.894 111.369 C 134.512 110.293,135.212 109.083,135.450 108.680 C 137.139 105.805,139.516 101.691,139.899 100.978 C 140.152 100.507,140.917 99.187,141.600 98.044 C 142.282 96.901,143.119 95.471,143.458 94.866 C 144.091 93.736,144.484 93.064,147.279 88.329 C 148.170 86.818,148.900 85.519,148.900 85.444 C 148.900 85.368,149.262 84.734,149.706 84.035 C 150.149 83.335,151.222 81.518,152.090 79.996 C 152.957 78.474,153.809 76.988,153.983 76.695 C 154.538 75.756,154.153 74.471,152.470 71.644 C 151.582 70.152,150.856 68.840,150.856 68.729 C 150.856 68.617,150.627 68.235,150.348 67.880 C 150.069 67.525,149.481 66.547,149.042 65.708 C 148.603 64.868,147.856 63.576,147.383 62.836 C 146.909 62.097,146.199 60.886,145.805 60.147 C 145.411 59.407,144.791 58.364,144.427 57.828 C 144.063 57.293,143.765 56.782,143.765 56.692 C 143.765 56.603,143.050 55.339,142.176 53.884 C 141.302 52.429,140.587 51.160,140.587 51.064 C 140.587 50.969,140.145 50.225,139.605 49.413 C 139.065 48.600,138.513 47.684,138.377 47.378 C 138.241 47.072,137.885 46.410,137.586 45.907 C 136.875 44.713,134.042 39.841,133.224 38.407 C 132.872 37.791,132.356 36.901,132.076 36.430 C 131.797 35.960,131.109 34.749,130.546 33.741 C 129.984 32.732,129.384 31.742,129.213 31.540 C 129.043 31.339,128.479 30.394,127.960 29.441 C 126.260 26.317,124.141 22.623,123.834 22.249 C 123.668 22.048,123.154 21.167,122.692 20.293 C 122.230 19.419,121.503 18.154,121.077 17.482 C 120.154 16.024,120.077 15.094,120.837 14.562 C 121.803 13.885,258.002 13.992,258.680 14.670 " stroke="none" fill="#fbfbfb" fill-rule="evenodd"/><path id="path4" d="M120.837 14.562 C 120.077 15.094,120.154 16.024,121.077 17.482 C 121.503 18.154,122.230 19.419,122.692 20.293 C 123.154 21.167,123.668 22.048,123.834 22.249 C 124.141 22.623,126.260 26.317,127.960 29.441 C 128.479 30.394,129.043 31.339,129.213 31.540 C 129.384 31.742,129.984 32.732,130.546 33.741 C 131.109 34.749,131.797 35.960,132.076 36.430 C 132.356 36.901,132.872 37.791,133.224 38.407 C 134.042 39.841,136.875 44.713,137.586 45.907 C 137.885 46.410,138.241 47.072,138.377 47.378 C 138.513 47.684,139.065 48.600,139.605 49.413 C 140.145 50.225,140.587 50.969,140.587 51.064 C 140.587 51.160,141.302 52.429,142.176 53.884 C 143.050 55.339,143.765 56.603,143.765 56.692 C 143.765 56.782,144.063 57.293,144.427 57.828 C 144.791 58.364,145.411 59.407,145.805 60.147 C 146.199 60.886,146.909 62.097,147.383 62.836 C 147.856 63.576,148.603 64.868,149.042 65.708 C 149.481 66.547,150.069 67.525,150.348 67.880 C 150.627 68.235,150.856 68.617,150.856 68.729 C 150.856 68.840,151.582 70.152,152.470 71.644 C 154.153 74.471,154.538 75.756,153.983 76.695 C 153.809 76.988,152.957 78.474,152.090 79.996 C 151.222 81.518,150.149 83.335,149.706 84.035 C 149.262 84.734,148.900 85.368,148.900 85.444 C 148.900 85.519,148.170 86.818,147.279 88.329 C 144.484 93.064,144.091 93.736,143.458 94.866 C 143.119 95.471,142.282 96.901,141.600 98.044 C 140.917 99.187,140.152 100.507,139.899 100.978 C 139.516 101.691,137.139 105.805,135.450 108.680 C 135.212 109.083,134.498 110.323,133.862 111.436 C 133.225 112.548,132.388 113.797,132.000 114.212 C 131.613 114.627,131.296 115.190,131.296 115.464 C 131.296 115.738,130.619 117.129,129.791 118.556 C 128.964 119.982,127.204 123.020,125.880 125.306 C 124.557 127.592,122.566 131.030,121.456 132.946 C 120.346 134.863,119.163 136.908,118.826 137.491 C 118.063 138.814,114.710 144.611,112.369 148.655 C 111.395 150.336,109.351 153.857,107.826 156.479 C 106.300 159.101,104.053 162.984,102.832 165.108 C 101.610 167.231,100.365 169.377,100.065 169.875 C 99.765 170.374,99.076 171.568,98.534 172.528 C 97.993 173.489,97.236 174.589,96.852 174.973 C 96.468 175.358,96.076 176.001,95.980 176.403 C 95.883 176.805,95.056 178.400,94.141 179.948 C 93.225 181.496,91.811 183.918,90.999 185.330 C 89.633 187.702,87.354 191.635,85.773 194.349 C 85.411 194.969,84.905 195.862,84.647 196.333 C 84.389 196.803,83.428 198.454,82.512 200.000 C 79.457 205.156,79.181 205.915,80.257 206.203 C 80.559 206.284,98.167 206.352,119.386 206.354 L 157.964 206.357 159.099 205.196 C 159.723 204.557,160.263 203.777,160.298 203.464 C 160.333 203.150,160.848 202.050,161.442 201.019 C 162.035 199.988,163.761 196.999,165.277 194.377 C 166.792 191.754,169.047 187.848,170.287 185.697 C 172.596 181.689,175.769 176.248,176.560 174.939 C 176.804 174.535,177.186 173.875,177.408 173.472 C 177.825 172.715,182.505 164.616,186.379 157.946 C 189.359 152.815,189.766 152.459,190.712 154.156 C 190.936 154.560,191.923 156.265,192.904 157.946 C 193.886 159.627,194.878 161.333,195.110 161.736 C 195.342 162.139,196.554 164.230,197.803 166.381 C 199.053 168.533,200.306 170.699,200.588 171.195 C 200.870 171.691,201.885 173.451,202.844 175.107 C 203.804 176.763,205.544 179.768,206.712 181.785 C 207.880 183.802,209.831 187.158,211.049 189.242 C 212.267 191.326,213.511 193.472,213.815 194.010 C 214.119 194.548,215.320 196.638,216.483 198.655 C 217.860 201.043,218.566 202.511,218.504 202.862 C 218.452 203.158,218.541 203.433,218.703 203.473 C 218.864 203.513,219.487 204.150,220.087 204.890 L 221.179 206.235 260.013 206.297 C 300.613 206.361,299.511 206.389,299.511 205.315 C 299.511 204.768,295.507 197.576,291.310 190.587 C 290.987 190.049,290.541 189.279,290.318 188.875 C 289.342 187.107,283.508 177.058,283.007 176.284 C 282.702 175.813,282.251 174.878,282.005 174.205 C 281.758 173.533,281.320 172.794,281.030 172.562 C 280.740 172.331,279.926 171.120,279.221 169.873 C 278.183 168.037,275.333 163.086,274.325 161.369 C 274.207 161.167,273.406 159.792,272.545 158.313 C 271.684 156.834,270.178 154.248,269.199 152.567 C 268.219 150.886,267.184 149.101,266.899 148.600 C 266.410 147.739,262.756 141.433,262.227 140.537 C 261.783 139.785,257.675 132.706,255.897 129.629 C 253.721 125.864,253.409 125.326,250.856 120.935 C 249.713 118.969,248.610 117.058,248.404 116.688 C 248.199 116.318,247.621 115.321,247.121 114.473 C 246.620 113.626,246.210 112.660,246.210 112.326 C 246.210 111.993,246.041 111.656,245.834 111.576 C 245.627 111.497,244.841 110.372,244.087 109.078 C 243.333 107.783,241.977 105.458,241.075 103.912 C 237.593 97.948,233.157 90.294,232.573 89.242 C 231.755 87.770,229.356 83.649,228.873 82.885 C 228.660 82.549,228.344 81.999,228.170 81.663 C 227.997 81.326,227.611 80.651,227.314 80.161 C 224.876 76.151,224.602 75.122,225.590 73.686 C 225.998 73.091,228.580 68.682,229.826 66.453 C 231.368 63.692,232.468 61.803,233.143 60.758 C 233.577 60.086,234.253 58.930,234.646 58.191 C 235.038 57.451,235.640 56.404,235.984 55.865 C 236.327 55.325,236.899 54.335,237.255 53.664 C 237.611 52.994,238.012 52.280,238.147 52.078 C 239.025 50.768,243.032 43.607,243.032 43.348 C 243.032 43.174,243.122 43.032,243.233 43.032 C 243.423 43.032,246.210 38.337,246.210 38.016 C 246.210 37.933,246.473 37.514,246.794 37.086 C 247.115 36.658,247.669 35.758,248.025 35.086 C 248.380 34.413,249.066 33.203,249.548 32.396 C 251.812 28.610,254.034 24.726,254.034 24.555 C 254.034 24.451,254.194 24.189,254.390 23.973 C 254.585 23.757,255.173 22.813,255.696 21.876 C 256.219 20.938,257.214 19.200,257.908 18.013 C 259.319 15.597,259.373 15.363,258.680 14.670 C 258.002 13.992,121.803 13.885,120.837 14.562 M257.570 14.911 C 258.438 15.241,258.602 15.834,258.073 16.728 C 257.828 17.143,256.618 19.242,255.385 21.394 C 253.417 24.825,250.340 30.116,249.171 32.080 C 248.955 32.443,247.936 34.204,246.907 35.992 C 245.879 37.779,243.855 41.278,242.409 43.765 C 240.963 46.253,238.793 49.994,237.586 52.078 C 236.380 54.163,235.200 56.198,234.964 56.601 C 234.728 57.005,233.738 58.710,232.763 60.391 C 231.788 62.072,230.798 63.778,230.562 64.181 C 225.249 73.266,224.740 74.202,224.547 75.231 C 224.365 76.200,224.599 77.615,225.012 78.048 C 225.177 78.221,225.444 78.637,225.606 78.973 C 225.768 79.309,226.229 80.134,226.631 80.807 C 227.032 81.479,227.641 82.560,227.983 83.209 C 228.325 83.858,228.970 84.958,229.415 85.654 C 229.861 86.350,230.541 87.524,230.927 88.264 C 231.312 89.004,231.805 89.884,232.022 90.220 C 232.547 91.035,232.856 91.575,233.632 93.032 C 233.990 93.704,234.546 94.604,234.868 95.032 C 235.189 95.460,235.560 96.095,235.693 96.444 C 235.825 96.792,236.345 97.707,236.848 98.478 C 237.351 99.248,238.127 100.586,238.572 101.452 C 239.017 102.318,239.502 103.172,239.650 103.350 C 239.797 103.528,240.096 104.002,240.314 104.403 C 241.776 107.101,242.191 107.808,242.817 108.667 C 243.204 109.198,243.521 109.721,243.521 109.830 C 243.521 109.939,244.098 111.028,244.804 112.250 C 245.510 113.472,246.418 115.042,246.822 115.740 C 247.225 116.437,247.995 117.814,248.533 118.799 C 249.071 119.785,249.853 121.104,250.272 121.732 C 250.690 122.359,251.110 123.117,251.205 123.416 C 251.300 123.716,251.468 123.961,251.579 123.961 C 251.690 123.961,251.844 124.208,251.921 124.511 C 251.999 124.814,252.560 125.831,253.169 126.773 C 253.777 127.714,254.276 128.559,254.277 128.650 C 254.280 128.960,256.046 131.785,256.237 131.785 C 256.341 131.785,256.494 132.056,256.577 132.387 C 256.660 132.718,257.140 133.666,257.643 134.492 C 258.146 135.319,258.672 136.191,258.812 136.431 C 258.951 136.671,259.185 137.016,259.332 137.199 C 259.478 137.381,259.682 137.806,259.785 138.142 C 259.888 138.478,260.221 139.083,260.526 139.487 C 260.830 139.890,261.545 141.100,262.114 142.176 C 262.683 143.252,263.464 144.566,263.849 145.097 C 264.233 145.628,264.548 146.153,264.548 146.264 C 264.548 146.375,265.190 147.536,265.976 148.844 C 267.581 151.518,268.923 153.847,270.139 156.073 C 270.591 156.901,271.202 157.910,271.495 158.313 C 271.788 158.716,272.450 159.872,272.966 160.880 C 273.482 161.889,274.165 163.064,274.483 163.492 C 274.800 163.920,275.169 164.555,275.301 164.903 C 275.434 165.252,275.950 166.167,276.449 166.937 C 276.947 167.707,277.703 169.007,278.127 169.825 C 278.551 170.643,279.112 171.633,279.373 172.025 C 279.635 172.418,279.975 172.958,280.129 173.227 C 280.283 173.496,280.911 174.542,281.525 175.550 C 282.139 176.559,282.751 177.576,282.885 177.812 C 283.020 178.047,283.240 178.432,283.375 178.667 C 283.509 178.903,283.718 179.315,283.839 179.584 C 283.960 179.853,284.317 180.458,284.633 180.929 C 284.949 181.400,285.531 182.390,285.926 183.130 C 286.320 183.869,287.032 185.079,287.507 185.819 C 287.981 186.559,288.663 187.769,289.021 188.509 C 289.379 189.248,289.892 190.082,290.161 190.361 C 290.429 190.640,290.721 191.094,290.808 191.369 C 291.070 192.195,292.402 194.546,292.791 194.869 C 292.991 195.034,293.154 195.263,293.154 195.376 C 293.154 195.585,294.505 198.041,295.361 199.389 C 295.618 199.792,296.160 200.764,296.566 201.548 C 296.972 202.331,297.536 203.298,297.819 203.696 C 298.915 205.234,301.557 205.134,259.670 205.134 L 221.601 205.134 221.088 204.584 C 220.805 204.282,220.286 203.484,219.933 202.812 C 219.008 201.047,218.285 199.786,217.482 198.533 C 217.094 197.928,216.399 196.718,215.937 195.844 C 215.476 194.969,214.959 194.089,214.789 193.888 C 214.619 193.686,214.172 192.916,213.796 192.176 C 213.419 191.436,212.679 190.171,212.150 189.364 C 211.621 188.557,211.093 187.647,210.977 187.342 C 210.861 187.036,210.358 186.156,209.859 185.386 C 209.361 184.615,208.586 183.279,208.139 182.415 C 207.691 181.551,207.203 180.697,207.053 180.517 C 206.754 180.157,206.046 178.918,205.644 178.051 C 205.503 177.745,204.979 176.865,204.480 176.095 C 203.982 175.324,203.205 173.982,202.754 173.112 C 202.302 172.242,201.790 171.361,201.614 171.156 C 201.439 170.950,201.035 170.287,200.718 169.682 C 199.948 168.215,198.452 165.678,198.266 165.526 C 198.184 165.458,197.808 164.710,197.430 163.862 C 197.052 163.014,196.486 162.118,196.171 161.871 C 195.856 161.624,195.599 161.315,195.599 161.185 C 195.599 160.812,194.329 158.420,193.486 157.207 C 193.064 156.599,192.546 155.719,192.336 155.251 C 190.724 151.664,188.788 150.690,188.170 153.154 C 188.085 153.492,187.739 154.068,187.400 154.433 C 187.062 154.798,186.721 155.352,186.642 155.666 C 186.564 155.979,186.412 156.235,186.305 156.235 C 186.199 156.235,185.992 156.577,185.847 156.994 C 185.701 157.412,185.160 158.375,184.644 159.134 C 184.129 159.893,183.440 161.064,183.113 161.736 C 182.787 162.408,182.052 163.667,181.480 164.532 C 180.908 165.398,180.440 166.210,180.440 166.338 C 180.440 166.466,179.961 167.298,179.375 168.188 C 178.790 169.077,178.225 170.073,178.121 170.402 C 178.017 170.730,177.578 171.503,177.145 172.119 C 176.217 173.440,174.818 176.040,174.817 176.447 C 174.817 176.604,174.721 176.769,174.604 176.813 C 174.305 176.928,172.616 179.619,172.616 179.981 C 172.616 180.145,172.442 180.472,172.229 180.707 C 171.763 181.222,171.068 182.396,170.403 183.792 C 170.133 184.358,169.806 184.887,169.675 184.968 C 169.545 185.048,169.438 185.331,169.438 185.597 C 169.438 185.862,169.274 186.142,169.073 186.219 C 168.873 186.296,168.262 187.253,167.715 188.346 C 167.167 189.439,166.468 190.665,166.161 191.071 C 165.854 191.477,165.148 192.675,164.593 193.732 C 164.038 194.790,163.458 195.806,163.305 195.990 C 163.152 196.175,162.626 197.081,162.137 198.005 C 161.647 198.928,160.837 200.303,160.336 201.060 C 159.835 201.817,159.360 202.686,159.281 202.991 C 159.101 203.687,158.451 204.489,157.769 204.854 C 157.210 205.153,82.334 205.283,81.560 204.986 C 80.942 204.749,81.086 204.310,82.641 201.692 C 83.447 200.333,84.108 199.144,84.108 199.049 C 84.108 198.954,84.616 198.112,85.238 197.177 C 85.859 196.242,86.639 194.896,86.970 194.187 C 87.301 193.477,87.962 192.322,88.439 191.619 C 88.916 190.917,89.460 190.012,89.648 189.609 C 89.836 189.205,90.193 188.545,90.441 188.142 C 91.333 186.691,92.910 183.875,92.910 183.732 C 92.910 183.652,93.176 183.236,93.502 182.808 C 93.827 182.380,94.380 181.479,94.731 180.807 C 95.081 180.134,95.855 178.814,96.451 177.873 C 97.047 176.932,97.539 176.024,97.545 175.856 C 97.550 175.688,97.657 175.550,97.781 175.550 C 97.905 175.550,98.133 175.165,98.289 174.694 C 98.444 174.224,98.660 173.839,98.769 173.839 C 98.877 173.839,99.158 173.426,99.392 172.922 C 99.626 172.417,99.956 171.840,100.125 171.638 C 100.293 171.436,100.513 171.005,100.612 170.679 C 100.712 170.353,101.006 169.858,101.267 169.579 C 101.527 169.299,102.072 168.411,102.477 167.604 C 102.883 166.797,103.634 165.458,104.147 164.629 C 104.660 163.800,105.340 162.590,105.657 161.940 C 105.975 161.290,106.369 160.648,106.533 160.513 C 106.697 160.379,107.252 159.444,107.766 158.435 C 108.281 157.427,109.164 155.897,109.730 155.035 C 110.295 154.174,110.758 153.364,110.758 153.235 C 110.758 153.105,111.255 152.252,111.862 151.339 C 112.469 150.426,113.178 149.199,113.437 148.613 C 113.696 148.027,114.410 146.785,115.023 145.852 C 115.635 144.918,116.137 144.060,116.137 143.943 C 116.137 143.826,116.451 143.271,116.834 142.709 C 117.217 142.147,117.988 140.815,118.547 139.749 C 119.105 138.683,119.714 137.638,119.899 137.426 C 120.084 137.215,120.600 136.326,121.045 135.452 C 121.490 134.578,122.097 133.533,122.394 133.130 C 122.999 132.308,124.307 130.029,124.710 129.096 C 124.854 128.760,125.126 128.315,125.314 128.108 C 125.672 127.712,127.131 124.941,127.136 124.646 C 127.138 124.552,127.387 124.207,127.689 123.878 C 127.992 123.550,128.561 122.637,128.954 121.849 C 129.346 121.060,130.083 119.797,130.591 119.042 C 131.099 118.286,131.588 117.379,131.676 117.025 C 131.765 116.671,131.925 116.381,132.032 116.381 C 132.139 116.381,132.347 116.079,132.496 115.709 C 132.644 115.339,133.098 114.487,133.506 113.814 C 133.913 113.142,134.435 112.207,134.666 111.736 C 134.897 111.265,135.185 110.808,135.307 110.720 C 135.507 110.576,137.175 107.671,137.953 106.112 C 138.121 105.776,138.385 105.391,138.540 105.257 C 138.867 104.974,140.336 102.197,140.352 101.834 C 140.357 101.699,140.688 101.208,141.086 100.743 C 141.484 100.277,141.809 99.811,141.809 99.707 C 141.809 99.602,142.500 98.333,143.345 96.886 C 144.189 95.438,145.141 93.759,145.459 93.154 C 145.777 92.549,146.228 91.834,146.463 91.565 C 146.697 91.296,147.191 90.416,147.561 89.609 C 147.932 88.802,148.428 87.922,148.665 87.653 C 148.902 87.384,149.446 86.504,149.873 85.697 C 150.299 84.890,151.131 83.460,151.720 82.518 C 152.309 81.577,152.796 80.715,152.801 80.604 C 152.807 80.492,153.191 79.830,153.653 79.133 C 155.699 76.051,155.826 76.438,148.754 64.240 C 147.128 61.437,145.653 58.890,138.838 47.127 C 137.339 44.539,135.097 40.660,133.856 38.509 C 132.616 36.357,130.856 33.331,129.946 31.785 C 129.036 30.238,128.060 28.563,127.777 28.061 C 127.243 27.117,124.118 21.727,121.998 18.093 C 120.604 15.704,120.628 15.802,121.271 15.159 C 121.825 14.606,256.124 14.361,257.570 14.911 " stroke="none" fill="#bebef4" fill-rule="evenodd"/></g></svg>